<svg width="1421" height="791" viewBox="0 0 1421 791" fill="none" xmlns="http://www.w3.org/2000/svg">
<line x1="1.19238" y1="61.8193" x2="1420" y2="61.8195" stroke="#CFCFCF" stroke-width="2"/>
<line x1="1.19238" y1="122.438" x2="1420" y2="122.439" stroke="#CFCFCF" stroke-width="2"/>
<line x1="1.19238" y1="183.058" x2="1420" y2="183.058" stroke="#CFCFCF" stroke-width="2"/>
<line x1="1.19238" y1="243.677" x2="1420" y2="243.677" stroke="#CFCFCF" stroke-width="2"/>
<line x1="1.19238" y1="304.296" x2="1420" y2="304.296" stroke="#CFCFCF" stroke-width="2"/>
<line x1="1.19238" y1="364.915" x2="1420" y2="364.915" stroke="#CFCFCF" stroke-width="2"/>
<line x1="1.19238" y1="425.534" x2="1420" y2="425.534" stroke="#CFCFCF" stroke-width="2"/>
<line x1="1.19238" y1="486.153" x2="1420" y2="486.153" stroke="#CFCFCF" stroke-width="2"/>
<line x1="1.19238" y1="546.772" x2="1420" y2="546.773" stroke="#CFCFCF" stroke-width="2"/>
<line x1="1.19238" y1="607.392" x2="1420" y2="607.392" stroke="#CFCFCF" stroke-width="2"/>
<line x1="1.19238" y1="668.011" x2="1420" y2="668.011" stroke="#CFCFCF" stroke-width="2"/>
<line x1="1.19238" y1="728.63" x2="1420" y2="728.63" stroke="#CFCFCF" stroke-width="2"/>
<line x1="1.19238" y1="789.249" x2="1420" y2="789.249" stroke="#CFCFCF" stroke-width="2"/>
<line x1="1.00003" y1="0.544922" x2="0.999996" y2="789.7" stroke="#CFCFCF" stroke-width="2"/>
<line x1="341" y1="0.544922" x2="341" y2="789.7" stroke="#CFCFCF" stroke-width="2"/>
<line x1="698.5" y1="0.544922" x2="698.5" y2="789.7" stroke="#CFCFCF" stroke-width="2"/>
<line x1="1061" y1="0.544922" x2="1061" y2="789.7" stroke="#CFCFCF" stroke-width="2"/>
<line x1="1419.56" y1="0.544922" x2="1419.56" y2="789.7" stroke="#CFCFCF" stroke-width="2"/>
</svg>
