<svg width="169" height="51" viewBox="0 0 169 51" fill="none" xmlns="http://www.w3.org/2000/svg">
<path d="M65.3415 23.0848V17.0248H68.1415L69.5815 17.0648H80.3815L81.2015 17.0248H85.2415V23.0848H82.0615V20.0248H68.5215V23.0848H65.3415ZM68.5615 5.02476H82.6215V18.9448H79.2415V6.46476L80.7615 7.98476H70.3815L71.8015 6.88476C71.8815 7.55143 71.9348 8.21143 71.9615 8.86476C71.9882 9.5181 72.0015 10.1314 72.0015 10.7048C72.0015 12.3314 71.8748 13.7114 71.6215 14.8448C71.3682 15.9648 70.9882 16.8181 70.4815 17.4048C69.9748 17.9781 69.3482 18.2648 68.6015 18.2648L67.2015 17.0848C67.7615 16.4448 68.1748 15.5448 68.4415 14.3848C68.7215 13.2114 68.8615 11.7514 68.8615 10.0048C68.8615 9.23143 68.8348 8.42476 68.7815 7.58476C68.7282 6.74476 68.6548 5.89143 68.5615 5.02476ZM87.0041 20.0248V8.64476H90.2841V18.2648L89.4641 18.0448L96.3241 8.64476H100.624V20.0248H97.3441V10.2248L98.1641 10.4648L91.1841 20.0248H87.0041ZM108.757 20.3248C107.49 20.3248 106.384 20.1648 105.437 19.8448C104.49 19.5114 103.75 19.0381 103.217 18.4248C102.684 17.7981 102.39 17.0648 102.337 16.2248H105.577C105.67 16.7848 105.99 17.2114 106.537 17.5048C107.084 17.7981 107.824 17.9448 108.757 17.9448C109.65 17.9448 110.344 17.8314 110.837 17.6048C111.344 17.3648 111.597 16.9981 111.597 16.5048C111.597 16.1048 111.384 15.8114 110.957 15.6248C110.544 15.4248 109.877 15.3248 108.957 15.3248H106.837V13.3248H108.897C109.724 13.3248 110.33 13.2048 110.717 12.9648C111.117 12.7248 111.317 12.4248 111.317 12.0648C111.317 11.6248 111.084 11.2914 110.617 11.0648C110.164 10.8381 109.55 10.7248 108.777 10.7248C107.924 10.7248 107.237 10.8581 106.717 11.1248C106.197 11.3914 105.89 11.7914 105.797 12.3248H102.577C102.63 11.5914 102.91 10.9248 103.417 10.3248C103.924 9.72476 104.637 9.24476 105.557 8.88476C106.49 8.52476 107.61 8.34476 108.917 8.34476C110.077 8.34476 111.09 8.48476 111.957 8.76476C112.824 9.04476 113.497 9.43143 113.977 9.92477C114.457 10.4181 114.697 10.9848 114.697 11.6248C114.697 12.1314 114.537 12.5981 114.217 13.0248C113.91 13.4514 113.41 13.7914 112.717 14.0448C112.037 14.2981 111.144 14.4248 110.037 14.4248V14.0848C111.624 14.0181 112.844 14.2114 113.697 14.6648C114.564 15.1181 114.997 15.8114 114.997 16.7448C114.997 17.4248 114.75 18.0381 114.257 18.5848C113.777 19.1314 113.07 19.5581 112.137 19.8648C111.204 20.1714 110.077 20.3248 108.757 20.3248ZM127.405 20.0248L126.925 15.8648L127.465 14.3448L126.925 12.8448L127.405 8.64476H130.865L130.205 14.3448L130.865 20.0248H127.405ZM128.285 14.3448C128.071 15.5448 127.678 16.5981 127.105 17.5048C126.545 18.3981 125.831 19.0914 124.965 19.5848C124.111 20.0781 123.151 20.3248 122.085 20.3248C120.978 20.3248 119.998 20.0781 119.145 19.5848C118.291 19.0781 117.625 18.3781 117.145 17.4848C116.678 16.5781 116.445 15.5314 116.445 14.3448C116.445 13.1448 116.678 12.0981 117.145 11.2048C117.625 10.2981 118.291 9.5981 119.145 9.10476C119.998 8.5981 120.978 8.34476 122.085 8.34476C123.151 8.34476 124.111 8.59143 124.965 9.08476C125.831 9.5781 126.551 10.2781 127.125 11.1848C127.698 12.0781 128.085 13.1314 128.285 14.3448ZM119.825 14.3448C119.825 15.0114 119.958 15.5981 120.225 16.1048C120.505 16.6114 120.885 17.0114 121.365 17.3048C121.845 17.5848 122.398 17.7248 123.025 17.7248C123.651 17.7248 124.238 17.5848 124.785 17.3048C125.345 17.0114 125.838 16.6114 126.265 16.1048C126.691 15.5981 127.025 15.0114 127.265 14.3448C127.025 13.6781 126.691 13.0914 126.265 12.5848C125.838 12.0648 125.345 11.6648 124.785 11.3848C124.238 11.0914 123.651 10.9448 123.025 10.9448C122.398 10.9448 121.845 11.0914 121.365 11.3848C120.885 11.6648 120.505 12.0648 120.225 12.5848C119.958 13.0914 119.825 13.6781 119.825 14.3448ZM133.098 20.0248V8.64476H136.378V18.2648L135.558 18.0448L142.418 8.64476H146.718V20.0248H143.438V10.2248L144.258 10.4648L137.278 20.0248H133.098ZM139.818 7.60476C138.525 7.60476 137.485 7.29143 136.698 6.66476C135.911 6.02476 135.425 5.0981 135.238 3.88476H137.858C137.951 4.4581 138.165 4.8981 138.498 5.20476C138.845 5.4981 139.285 5.64476 139.818 5.64476C140.351 5.64476 140.785 5.4981 141.118 5.20476C141.451 4.8981 141.671 4.4581 141.778 3.88476H144.378C144.205 5.0981 143.718 6.02476 142.918 6.66476C142.131 7.29143 141.098 7.60476 139.818 7.60476ZM149.231 8.64476H152.551V20.0248H149.231V8.64476ZM158.771 8.64476H162.091V20.0248H158.771V8.64476ZM151.131 12.9648H160.071V15.4848H151.131V12.9648Z" fill="black"/>
<path d="M66.5615 30.0248H69.9615V45.0248H66.5615V30.0248ZM78.5615 30.0248H81.9615V45.0248H78.5615V30.0248ZM68.4215 35.9448H80.0615V38.9248H68.4215V35.9448ZM93.058 45.3248C91.3114 45.3248 89.778 44.9981 88.458 44.3448C87.1514 43.6914 86.1314 42.7848 85.398 41.6248C84.6647 40.4514 84.298 39.0848 84.298 37.5248C84.298 35.9648 84.6647 34.6048 85.398 33.4448C86.1314 32.2714 87.1514 31.3581 88.458 30.7048C89.778 30.0514 91.3114 29.7248 93.058 29.7248C94.8047 29.7248 96.3314 30.0514 97.638 30.7048C98.958 31.3581 99.9847 32.2714 100.718 33.4448C101.451 34.6048 101.818 35.9648 101.818 37.5248C101.818 39.0848 101.451 40.4514 100.718 41.6248C99.9847 42.7848 98.958 43.6914 97.638 44.3448C96.3314 44.9981 94.8047 45.3248 93.058 45.3248ZM93.058 42.3048C94.1514 42.3048 95.0914 42.1114 95.878 41.7248C96.678 41.3381 97.2914 40.7848 97.718 40.0648C98.158 39.3448 98.378 38.4981 98.378 37.5248C98.378 36.5514 98.158 35.7048 97.718 34.9848C97.2914 34.2648 96.678 33.7114 95.878 33.3248C95.0914 32.9381 94.1514 32.7448 93.058 32.7448C91.978 32.7448 91.038 32.9381 90.238 33.3248C89.438 33.7114 88.818 34.2648 88.378 34.9848C87.9514 35.7048 87.738 36.5514 87.738 37.5248C87.738 38.4981 87.9514 39.3448 88.378 40.0648C88.818 40.7848 89.438 41.3381 90.238 41.7248C91.038 42.1114 91.978 42.3048 93.058 42.3048ZM112.339 30.0248C113.526 30.0248 114.552 30.2314 115.419 30.6448C116.286 31.0581 116.946 31.6381 117.399 32.3848C117.866 33.1314 118.099 33.9981 118.099 34.9848C118.099 35.9714 117.866 36.8381 117.399 37.5848C116.946 38.3181 116.286 38.8981 115.419 39.3248C114.552 39.7381 113.526 39.9448 112.339 39.9448H105.719V37.1448H112.159C112.946 37.1448 113.559 36.9514 113.999 36.5648C114.452 36.1781 114.679 35.6514 114.679 34.9848C114.679 34.3048 114.452 33.7781 113.999 33.4048C113.559 33.0181 112.946 32.8248 112.159 32.8248H106.019L107.559 31.2048V45.0248H104.159V30.0248H112.339ZM132.438 36.2248V38.8248H121.698V36.2248H132.438ZM123.978 37.5248L122.978 43.8848L121.498 42.2048H133.058V45.0248H119.558L120.718 37.5248L119.558 30.0248H132.958V32.8448H121.498L122.978 31.1648L123.978 37.5248Z" fill="#B5292A"/>
<path d="M33.8012 17.0656C41.0729 20.1793 47.1967 23.9677 51.2208 27.5459C53.2366 29.3384 54.6818 31.0402 55.4964 32.5382C56.3177 34.0488 56.419 35.1939 56.0662 36.018C55.7132 36.842 54.8145 37.5591 53.1546 38.0071C51.5083 38.4514 49.2793 38.5799 46.591 38.3581C41.2244 37.9152 34.2566 36.0978 26.9849 32.984C19.7134 29.8703 13.5902 26.0822 9.56623 22.5041C7.55013 20.7114 6.10433 19.0096 5.28976 17.5114C4.46851 16.0009 4.3681 14.8561 4.72087 14.032C5.07373 13.2079 5.97164 12.4906 7.63155 12.0425C9.27791 11.5981 11.5073 11.47 14.196 11.6919C19.5625 12.1348 26.5296 13.9519 33.8012 17.0656Z" stroke="black" stroke-opacity="0.2" stroke-width="2"/>
<path d="M33.8012 17.0656C41.0729 20.1793 47.1967 23.9677 51.2208 27.5459C53.2366 29.3384 54.6818 31.0402 55.4964 32.5382C56.3177 34.0488 56.419 35.1939 56.0662 36.018C55.7132 36.842 54.8145 37.5591 53.1546 38.0071C51.5083 38.4514 49.2793 38.5799 46.591 38.3581C41.2244 37.9152 34.2566 36.0978 26.9849 32.984C19.7134 29.8703 13.5902 26.0822 9.56623 22.5041C7.55013 20.7114 6.10433 19.0096 5.28976 17.5114C4.46851 16.0009 4.3681 14.8561 4.72087 14.032C5.07373 13.2079 5.97164 12.4906 7.63155 12.0425C9.27791 11.5981 11.5073 11.47 14.196 11.6919C19.5625 12.1348 26.5296 13.9519 33.8012 17.0656Z" stroke="url(#paint0_radial_80_293)" stroke-width="2"/>
<path d="M32.7616 36.2588C32.7739 36.2885 32.7853 36.3184 32.7977 36.3477C32.796 36.3221 32.7946 36.2961 32.7928 36.2695L34.5057 36.8389L36.6327 50.0498L31.8143 35.9443L32.7616 36.2588ZM29.3924 15.3418C30.7874 19.4277 34.8875 21.9478 39.1629 21.3467L52.8856 19.417L39.8631 24.1562C35.806 25.6326 33.3692 29.7815 34.0555 34.0439L34.1493 34.6289C33.757 34.5082 33.2063 34.3239 32.6747 34.1416C32.5964 32.5803 32.5221 30.913 32.4911 30.5234C32.3706 29.0153 32.1446 27.1408 30.6649 27.4561C29.0678 27.7964 27.6224 28.7676 27.7059 28.7627C28.5059 28.6984 29.9219 30.0821 30.3973 30.6934C31.0201 31.4943 31.4773 32.6801 31.8944 33.8682C31.408 33.6951 31.043 33.56 31.0057 33.5303C29.8363 30.1262 26.4167 28.0292 22.8524 28.5303C22.0945 28.6368 21.3537 28.7415 20.6893 28.835C19.5409 28.2301 18.74 27.7727 17.6356 27.0908C18.636 26.7268 19.7765 26.3114 20.9247 25.8936C24.9816 24.417 27.4188 20.2673 26.7323 16.0049L24.1541 0L29.3924 15.3418ZM17.4227 29.2939L7.90121 30.6328L15.242 27.9609L17.4227 29.2939ZM27.2918 18.6074C27.531 21.2117 26.4864 23.6146 23.8827 25.0615C21.9142 26.1554 27.5945 27.981 27.8963 23.791C28.0108 22.2014 27.6823 19.7023 27.2918 18.6074Z" fill="url(#paint1_linear_80_293)"/>
<defs>
<radialGradient id="paint0_radial_80_293" cx="0" cy="0" r="1" gradientTransform="matrix(-4.85562 6.713 -20.2797 -14.259 30.3935 25.0247)" gradientUnits="userSpaceOnUse">
<stop offset="0.719688" stop-color="white"/>
<stop offset="1" stop-color="#B5292A"/>
</radialGradient>
<linearGradient id="paint1_linear_80_293" x1="18.7518" y1="1.8967" x2="44.8934" y2="43.7651" gradientUnits="userSpaceOnUse">
<stop offset="0.455948"/>
<stop offset="1" stop-color="#A5A5A5"/>
</linearGradient>
</defs>
</svg>
