<svg width="61" height="61" viewBox="0 0 61 61" fill="none" xmlns="http://www.w3.org/2000/svg">
<rect width="61" height="61" rx="30.5" fill="#252525"/>
<path d="M19 40C19 38.4087 19.6321 36.8826 20.7574 35.7574C21.8826 34.6321 23.4087 34 25 34H37C38.5913 34 40.1174 34.6321 41.2426 35.7574C42.3679 36.8826 43 38.4087 43 40C43 40.7957 42.6839 41.5587 42.1213 42.1213C41.5587 42.6839 40.7956 43 40 43H22C21.2044 43 20.4413 42.6839 19.8787 42.1213C19.3161 41.5587 19 40.7957 19 40Z" stroke="#F4F4F4" stroke-width="3.4" stroke-linejoin="round"/>
<path d="M31 28C33.4853 28 35.5 25.9853 35.5 23.5C35.5 21.0147 33.4853 19 31 19C28.5147 19 26.5 21.0147 26.5 23.5C26.5 25.9853 28.5147 28 31 28Z" stroke="#F4F4F4" stroke-width="3.4"/>
</svg>
