<svg width="172" height="141" viewBox="0 0 172 141" fill="none" xmlns="http://www.w3.org/2000/svg">
<path d="M155.323 100.337C155.832 99.1474 155.951 96.8856 153.834 92.991C151.754 89.1662 147.941 84.6212 142.392 79.6869C131.34 69.8598 114.373 59.3383 94.0937 50.6548C73.8143 41.9713 54.4907 36.9528 39.7518 35.7364C32.352 35.1258 26.433 35.5039 22.23 36.6383C17.95 37.7937 16.3954 39.4406 15.8861 40.6301C15.3769 41.8197 15.258 44.0818 17.3753 47.976C19.4548 51.8004 23.2675 56.343 28.8156 61.2764C39.8673 71.1036 56.8336 81.6274 77.1128 90.3111L74.8955 95.4894L71.0562 93.8065C32.4037 76.4757 5.84756 52.5765 10.457 39.0683L10.7078 38.4127C16.6213 24.6025 54.9472 27.7647 96.311 45.4765L100.153 47.1604C139.439 64.7753 166.23 89.1755 160.501 102.554L160.2 103.188C153.389 116.261 115.613 112.925 74.8955 95.4894L77.1128 90.3111C97.3923 98.9948 116.717 104.01 131.456 105.227C138.856 105.838 144.776 105.463 148.979 104.329C153.258 103.173 154.813 101.526 155.323 100.337Z" fill="black" fill-opacity="0.2"/>
<path d="M155.323 100.337C155.832 99.1474 155.951 96.8856 153.834 92.991C151.754 89.1662 147.941 84.6212 142.392 79.6869C131.34 69.8598 114.373 59.3383 94.0937 50.6548C73.8143 41.9713 54.4907 36.9528 39.7518 35.7364C32.352 35.1258 26.433 35.5039 22.23 36.6383C17.95 37.7937 16.3954 39.4406 15.8861 40.6301C15.3769 41.8197 15.258 44.0818 17.3753 47.976C19.4548 51.8004 23.2675 56.343 28.8156 61.2764C39.8673 71.1036 56.8336 81.6274 77.1128 90.3111L74.8955 95.4894L71.0562 93.8065C32.4037 76.4757 5.84756 52.5765 10.457 39.0683L10.7078 38.4127C16.6213 24.6025 54.9472 27.7647 96.311 45.4765L100.153 47.1604C139.439 64.7753 166.23 89.1755 160.501 102.554L160.2 103.188C153.389 116.261 115.613 112.925 74.8955 95.4894L77.1128 90.3111C97.3923 98.9948 116.717 104.01 131.456 105.227C138.856 105.838 144.776 105.463 148.979 104.329C153.258 103.173 154.813 101.526 155.323 100.337Z" fill="url(#paint0_radial_44_178)"/>
<path d="M92.2744 102.124C92.3091 102.207 92.3412 102.292 92.3762 102.374C92.3713 102.302 92.3674 102.229 92.3624 102.154L97.1868 103.758L103.177 140.966L89.6064 101.238L92.2744 102.124ZM82.7851 43.2105C86.7141 54.7186 98.2621 61.8166 110.304 60.1234L148.954 54.6884L112.276 68.0366C100.849 72.1949 93.9857 83.8803 95.9188 95.8856L96.1829 97.5331C95.078 97.193 93.5269 96.674 92.0296 96.1606C91.8091 91.7632 91.6 87.067 91.5125 85.97C91.1734 81.7222 90.5368 76.4426 86.369 77.3306C81.8709 78.2892 77.7999 81.0246 78.035 81.0108C80.2882 80.8297 84.2764 84.7269 85.6154 86.4486C87.3696 88.7044 88.6573 92.0442 89.8319 95.3905C88.4621 94.903 87.4341 94.5224 87.329 94.4388C84.0353 84.851 74.404 78.9449 64.365 80.3562C62.2304 80.6563 60.1439 80.9512 58.2726 81.2143C55.0379 79.5107 52.7823 78.2225 49.6717 76.3019C52.4894 75.2766 55.7016 74.1066 58.9355 72.9298C70.362 68.771 77.2263 57.0833 75.2927 45.0781L68.0314 0L82.7851 43.2105ZM49.0721 82.5071L22.2546 86.278L42.9302 78.7526L49.0721 82.5071ZM76.8688 52.4082C77.5423 59.7432 74.6002 66.511 67.2668 70.5864C61.7224 73.6674 77.7214 78.809 78.5714 67.0079C78.8938 62.5307 77.9685 55.492 76.8688 52.4082Z" fill="url(#paint1_linear_44_178)"/>
<defs>
<radialGradient id="paint0_radial_44_178" cx="0" cy="0" r="1" gradientTransform="matrix(-13.676 18.9073 -57.1182 -40.1608 85.6045 70.4828)" gradientUnits="userSpaceOnUse">
<stop offset="0.719688" stop-color="white"/>
<stop offset="1" stop-color="#B5292A"/>
</radialGradient>
<linearGradient id="paint1_linear_44_178" x1="52.8155" y1="5.34209" x2="126.444" y2="123.265" gradientUnits="userSpaceOnUse">
<stop offset="0.455948"/>
<stop offset="1" stop-color="#A5A5A5"/>
</linearGradient>
</defs>
</svg>
