<svg width="61" height="61" viewBox="0 0 61 61" fill="none" xmlns="http://www.w3.org/2000/svg">
<rect width="61" height="61" rx="30.5" fill="#252525"/>
<path d="M33.2537 39.8486H27.3977C24.2915 39.8486 21.3125 38.6209 19.116 36.4358C16.9195 34.2507 15.6857 31.2869 15.6857 28.1967V20.9143H21.5417V28.1967C21.5417 29.7418 22.1586 31.2236 23.2568 32.3163C24.3551 33.4088 25.8446 34.0226 27.3977 34.0226V20.9143H33.2537V27.4684H33.2976C34.9022 27.2693 36.3783 26.4939 37.4487 25.288C38.5189 24.0821 39.1097 22.5289 39.1097 20.9201H44.9657L44.465 23.4122C44.1651 24.9037 43.5268 26.3074 42.5988 27.5163C41.6706 28.725 40.4773 29.707 39.1097 30.3872C40.4395 30.828 41.6257 31.6163 42.5442 32.6697C43.4627 33.7231 44.0796 35.0029 44.3303 36.3748L44.9657 39.8543H39.1097C39.1097 38.2457 38.5189 36.6924 37.4487 35.4865C36.3783 34.2806 34.9022 33.5052 33.2976 33.306V39.8602L33.2537 39.8486Z" fill="white"/>
</svg>
